<svg width="26" height="26" viewBox="0 0 26 26" fill="none" xmlns="http://www.w3.org/2000/svg">
<rect width="26" height="26" fill="black"/>
<path d="M13.5 2C10.3792 2 9.98675 2.01438 8.76056 2.069C7.53438 2.1265 6.69919 2.31912 5.9675 2.60375C5.19965 2.89172 4.50433 3.34464 3.93056 3.93056C3.34464 4.50433 2.89172 5.19965 2.60375 5.9675C2.31912 6.69775 2.12506 7.53437 2.069 8.75625C2.01438 9.98531 2 10.3763 2 13.5014C2 16.6237 2.01438 17.0147 2.069 18.2409C2.1265 19.4656 2.31912 20.3008 2.60375 21.0325C2.89844 21.7886 3.29088 22.4297 3.93056 23.0694C4.56881 23.7091 5.20994 24.103 5.96606 24.3962C6.69919 24.6809 7.53294 24.8749 8.75769 24.931C9.98531 24.9856 10.3763 25 13.5 25C16.6237 25 17.0133 24.9856 18.2409 24.931C19.4642 24.8735 20.3023 24.6809 21.0339 24.3962C21.8013 24.1081 22.4961 23.6552 23.0694 23.0694C23.7091 22.4297 24.1016 21.7886 24.3962 21.0325C24.6794 20.3008 24.8735 19.4656 24.931 18.2409C24.9856 17.0147 25 16.6237 25 13.5C25 10.3763 24.9856 9.98531 24.931 8.75769C24.8735 7.53438 24.6794 6.69775 24.3962 5.9675C24.1083 5.19965 23.6554 4.50433 23.0694 3.93056C22.4957 3.34464 21.8003 2.89172 21.0325 2.60375C20.2994 2.31912 19.4627 2.12506 18.2394 2.069C17.0118 2.01438 16.6223 2 13.4971 2H13.5ZM12.4693 4.07288H13.5014C16.5719 4.07288 16.9356 4.08294 18.1474 4.139C19.2687 4.18931 19.8782 4.37763 20.2836 4.53431C20.8197 4.74275 21.2036 4.99287 21.6061 5.39537C22.0086 5.79787 22.2573 6.18025 22.4657 6.71788C22.6238 7.12181 22.8107 7.73131 22.861 8.85256C22.9171 10.0644 22.9286 10.4281 22.9286 13.4971C22.9286 16.5662 22.9171 16.9313 22.861 18.1431C22.8107 19.2644 22.6224 19.8724 22.4657 20.2778C22.28 20.7765 21.9859 21.2277 21.6046 21.5989C21.2021 22.0014 20.8198 22.2501 20.2821 22.4585C19.8796 22.6166 19.2701 22.8035 18.1474 22.8553C16.9356 22.9099 16.5719 22.9228 13.5014 22.9228C10.4309 22.9228 10.0658 22.9099 8.854 22.8553C7.73275 22.8035 7.12469 22.6166 6.71931 22.4585C6.22026 22.2734 5.76855 21.9798 5.39681 21.5989C5.01483 21.2274 4.72022 20.7757 4.53431 20.2764C4.37763 19.8724 4.18931 19.2629 4.139 18.1417C4.08438 16.9299 4.07288 16.5662 4.07288 13.4942C4.07288 10.4223 4.08438 10.0615 4.139 8.84969C4.19075 7.72844 4.37763 7.11894 4.53575 6.71356C4.74419 6.17738 4.99431 5.79356 5.39681 5.39106C5.79931 4.98856 6.18169 4.73988 6.71931 4.53144C7.12469 4.37331 7.73275 4.18644 8.854 4.13469C9.91488 4.08581 10.326 4.07144 12.4693 4.07V4.07288ZM19.6396 5.98187C19.4583 5.98187 19.2789 6.01757 19.1115 6.08692C18.944 6.15627 18.7919 6.25792 18.6638 6.38607C18.5356 6.51421 18.434 6.66634 18.3646 6.83377C18.2953 7.0012 18.2596 7.18065 18.2596 7.36188C18.2596 7.5431 18.2953 7.72255 18.3646 7.88998C18.434 8.05741 18.5356 8.20954 18.6638 8.33768C18.7919 8.46583 18.944 8.56748 19.1115 8.63683C19.2789 8.70618 19.4583 8.74188 19.6396 8.74188C20.0056 8.74188 20.3566 8.59648 20.6154 8.33768C20.8742 8.07888 21.0196 7.72787 21.0196 7.36188C21.0196 6.99588 20.8742 6.64487 20.6154 6.38607C20.3566 6.12727 20.0056 5.98187 19.6396 5.98187ZM13.5014 7.59475C12.7181 7.58253 11.9402 7.72626 11.2129 8.01758C10.4857 8.30889 9.82362 8.74198 9.26534 9.29161C8.70707 9.84124 8.26371 10.4964 7.96108 11.2191C7.65846 11.9417 7.50261 12.7173 7.50261 13.5007C7.50261 14.2841 7.65846 15.0598 7.96108 15.7824C8.26371 16.505 8.70707 17.1602 9.26534 17.7098C9.82362 18.2595 10.4857 18.6925 11.2129 18.9839C11.9402 19.2752 12.7181 19.4189 13.5014 19.4067C15.0518 19.3825 16.5306 18.7496 17.6184 17.6447C18.7063 16.5397 19.316 15.0513 19.316 13.5007C19.316 11.9501 18.7063 10.4617 17.6184 9.35677C16.5306 8.25181 15.0518 7.61894 13.5014 7.59475ZM13.5014 9.66619C14.0049 9.66619 14.5034 9.76535 14.9686 9.95802C15.4337 10.1507 15.8564 10.4331 16.2124 10.7891C16.5684 11.1451 16.8508 11.5677 17.0434 12.0329C17.2361 12.498 17.3353 12.9965 17.3353 13.5C17.3353 14.0035 17.2361 14.502 17.0434 14.9671C16.8508 15.4323 16.5684 15.8549 16.2124 16.2109C15.8564 16.5669 15.4337 16.8493 14.9686 17.042C14.5034 17.2346 14.0049 17.3338 13.5014 17.3338C12.4846 17.3338 11.5095 16.9299 10.7905 16.2109C10.0715 15.4919 9.66763 14.5168 9.66763 13.5C9.66763 12.4832 10.0715 11.5081 10.7905 10.7891C11.5095 10.0701 12.4846 9.66619 13.5014 9.66619Z" fill="white"/>
</svg>
