<svg width="27" height="27" viewBox="0 0 27 27" fill="none" xmlns="http://www.w3.org/2000/svg">
<g clip-path="url(#clip0_1250_73)">
<rect width="27" height="27" rx="3" fill="white"/>
<path d="M24.4688 0H2.53125C1.13906 0 0 1.13906 0 2.53125V24.4688C0 25.8609 1.13906 27 2.53125 27H24.4688C25.8609 27 27 25.8609 27 24.4688V2.53125C27 1.13906 25.8609 0 24.4688 0ZM10.125 21.9375H6.75V10.125H10.125V21.9375ZM8.4375 8.4375C7.98995 8.4375 7.56073 8.25971 7.24426 7.94324C6.92779 7.62677 6.75 7.19755 6.75 6.75C6.75 6.30245 6.92779 5.87323 7.24426 5.55676C7.56073 5.24029 7.98995 5.0625 8.4375 5.0625C8.88505 5.0625 9.31427 5.24029 9.63074 5.55676C9.94721 5.87323 10.125 6.30245 10.125 6.75C10.125 7.19755 9.94721 7.62677 9.63074 7.94324C9.31427 8.25971 8.88505 8.4375 8.4375 8.4375ZM21.9375 21.9375H18.5625V15.1875C18.5625 14.7399 18.3847 14.3107 18.0682 13.9943C17.7518 13.6778 17.3226 13.5 16.875 13.5C16.4274 13.5 15.9982 13.6778 15.6818 13.9943C15.3653 14.3107 15.1875 14.7399 15.1875 15.1875V21.9375H11.8125V10.125H15.1875V12.2192C15.8827 11.2641 16.9493 10.125 18.1406 10.125C20.2399 10.125 21.9375 12.0133 21.9375 14.3438V21.9375Z" fill="black"/>
</g>
<defs>
<clipPath id="clip0_1250_73">
<rect width="27" height="27" rx="3" fill="white"/>
</clipPath>
</defs>
</svg>
